<svg id="Layer_1" data-name="Layer 1" xmlns="http://www.w3.org/2000/svg" xmlns:xlink="http://www.w3.org/1999/xlink" viewBox="0 0 162 33" width="162" height="33"><defs><style>.cls-1,.cls-2{fill:none;}.cls-1{clip-rule:evenodd;}.cls-3{fill:#f1a5ff;}.cls-4{clip-path:url(#clip-path);}.cls-5{isolation:isolate;}.cls-6{fill:url(#New_Gradient_Swatch_1);}.cls-7{fill:url(#New_Gradient_Swatch_2);}.cls-21,.cls-8{fill-rule:evenodd;}.cls-8{fill:url(#linear-gradient);}.cls-9{clip-path:url(#clip-path-2);}.cls-10{clip-path:url(#clip-path-3);}.cls-11{fill:#974dff;}.cls-12{clip-path:url(#clip-path-4);}.cls-13{clip-path:url(#clip-path-5);}.cls-14{clip-path:url(#clip-path-6);}.cls-15{clip-path:url(#clip-path-8);}.cls-16{fill:url(#New_Gradient_Swatch_2-2);}.cls-17{clip-path:url(#clip-path-9);}.cls-18{fill:#373fff;}.cls-19{clip-path:url(#clip-path-11);}.cls-20{clip-path:url(#clip-path-13);}.cls-21,.cls-22{fill:#fff;}.cls-23{clip-path:url(#clip-path-14);}.cls-24{fill:#222;}.cls-25{clip-path:url(#clip-path-15);}</style><clipPath id="clip-path"><path class="cls-1" d="M24.2844,25.2149a2.5779,2.5779,0,0,1,.2171,1.2281,3.3957,3.3957,0,0,1-.8461.0957,5.6121,5.6121,0,0,1-2.3528-.0835,3.6227,3.6227,0,0,1-2.2629-1.98s.015-.0149.0445-.04a.352.352,0,0,0-.1475-.0129,9.8857,9.8857,0,0,1-2.2815.1727,9.4332,9.4332,0,0,1-4.7438-2.37s1.5067-.3681,1.5067-.6791S11.697,20.66,11.697,20.66s-.2608-1.4346,1.5842-2.8673a11.2746,11.2746,0,0,1,3.2093-1.89,9.6337,9.6337,0,0,1-4.5791-2.3572s1.5067-.3681,1.5067-.6791-1.7212-.8858-1.7212-.8858-.2608-1.4347,1.5842-2.8673,3.2257-2.1127,4.7772-2.1922,2.0718-.08,2.0718-.08,1.3507-1.8237,2.06-1.8237c.3547,0,5.552,1.1046,6.0021,1.8237a1.8639,1.8639,0,0,0,.8993.8391c.23.1724.0851.0345,1.1277.2675,2.6078.5826,2.252.8114,4.19,1.1652.7842.1432,4.3777-1.6228,4.7167-1.4512a3.3552,3.3552,0,0,1-.3352,2.5946c-.617.9959.4953,1.8185-.0042,3.0656s.572,2.1709.3395,2.5931-4.0483-1.3816-4.7167-1.2512a41.7677,41.7677,0,0,1-5.6154,1.5264,3.2522,3.2522,0,0,1,.2981.17c.23.1723.0851.0345,1.1277.2675,2.6078.5826,2.252.8114,4.19,1.1652.7842.1432,4.3777-1.6228,4.7167-1.4512a3.3552,3.3552,0,0,1-.3352,2.5946c-.617.9959.4953,1.8185-.0042,3.0656s.572,2.1709.3395,2.5931-4.0483-1.3816-4.7167-1.2512a38.2764,38.2764,0,0,1-6.85,1.7322A16.7752,16.7752,0,0,1,24.2844,25.2149Z"/></clipPath><linearGradient id="New_Gradient_Swatch_1" x1="25.0935" y1="5.0181" x2="25.0935" y2="12.891" gradientUnits="userSpaceOnUse"><stop offset="0" stop-color="#e559ff"/><stop offset="1" stop-color="#924dff"/></linearGradient><linearGradient id="New_Gradient_Swatch_2" x1="18.3609" y1="8.9162" x2="29.8784" y2="16.6041" gradientUnits="userSpaceOnUse"><stop offset="0" stop-color="#f1a5ff"/><stop offset="1" stop-color="#ff686c"/></linearGradient><linearGradient id="linear-gradient" x1="25.557" y1="15.0321" x2="25.557" y2="21.7598" gradientUnits="userSpaceOnUse"><stop offset="0" stop-color="#6f3cff"/><stop offset="1" stop-color="#3633ff"/></linearGradient><clipPath id="clip-path-2"><path class="cls-2" d="M22.3778,9.06c.4713.0243.9426.0493,1.3823.0738.1535.0085.3007.0169.4409.025.3975.023.731.0437.9871.0615a32.688,32.688,0,0,1,3.5827.5166,24.1857,24.1857,0,0,1,5.4119,1.86c.1719.0762.7621.3392.7758.3453a.2849.2849,0,0,0,.382-.1846.3436.3436,0,0,0-.1648-.4278c-.0133-.0059-.604-.2691-.7764-.3456A24.6691,24.6691,0,0,0,28.874,9.0886a33.166,33.166,0,0,0-3.6495-.5255c-.2584-.018-.5938-.0388-.9931-.0619-.1406-.0081-.2882-.0165-.442-.0251-.4406-.0245-.9126-.05-1.3845-.0739l-.4562-.0232-.1279-.0064L21.7754,8.37a.3281.3281,0,0,0-.2739.4813l.0245.0545c.0206.0468.0438.1008.0688.1613.0717.1735.1435.3629.21.561a6.5369,6.5369,0,0,1,.241.9023c.0194.1059.034.2075.0438.3041a5.0376,5.0376,0,0,1-.1723,1.3752c-.0485.216-.1052.4435-.1684.6786-.0774.2879-.16.5721-.2435.84-.029.0937-.056.1785-.08.2529l-.0222.068-.0075.0227a.3423.3423,0,0,0,.1719.4243.286.286,0,0,0,.3789-.1924l.0086-.026.0234-.0717c.025-.0772.0529-.165.0829-.2616.0856-.276.1711-.5688.251-.8661.0657-.2442.1248-.4813.1756-.7078a5.515,5.515,0,0,0,.1863-1.61q-.0177-.1754-.052-.3622a7.2366,7.2366,0,0,0-.267-1.0032c-.04-.1176-.0809-.2321-.1229-.3425Z"/></clipPath><clipPath id="clip-path-3"><rect class="cls-2" x="11.6958" y="5.0181" width="27.5871" height="21.637"/></clipPath><clipPath id="clip-path-4"><path class="cls-2" d="M22.3816,12.8512q.058-.231.1068-.4507a5.6549,5.6549,0,0,0,.1863-1.6307q-.0177-.1776-.052-.3669a7.4057,7.4057,0,0,0-.267-1.0161c-.04-.1191-.0809-.2351-.1229-.3469l.145.0075c.4713.0246.9426.05,1.3823.0747.1535.0087.3007.0171.4409.0253.3975.0233.731.0443.9871.0623a32.2979,32.2979,0,0,1,3.5827.5232,23.9757,23.9757,0,0,1,5.4119,1.8838c.1719.0772.7621.3436.7758.35a.284.284,0,0,0,.382-.1869.35.35,0,0,0-.1648-.4333c-.0133-.006-.604-.2726-.7764-.35a24.4548,24.4548,0,0,0-5.5252-1.92,32.77,32.77,0,0,0-3.6495-.5323c-.2584-.0182-.5938-.0393-.9931-.0627-.1406-.0082-.2882-.0167-.442-.0254-.4406-.0248-.9126-.05-1.3845-.0749l-.4562-.0235-.1279-.0065-.0453-.0023a.3324.3324,0,0,0-.2739.4875l.0245.0552c.0206.0474.0438.1021.0688.1634.0717.1758.1435.3675.21.5682a6.69,6.69,0,0,1,.241.9139c.0194.1073.034.21.0438.308a5.1651,5.1651,0,0,1-.1723,1.3929c-.0435.1961-.0935.4016-.149.6135Z"/></clipPath><clipPath id="clip-path-5"><rect class="cls-2" x="11.6958" y="4.9752" width="27.5871" height="21.9159"/></clipPath><clipPath id="clip-path-6"><path class="cls-2" d="M19.9783,9.1688l.0283.0484c.024.0419.0509.09.08.1447.0834.1559.167.3266.2448.506a4.6645,4.6645,0,0,1,.2945.8894,2.2373,2.2373,0,0,1,.0513.45,3.8754,3.8754,0,0,1-.2329,1.233c-.0517.15-.1071.29-.1623.415-.0191.0433-.0368.0815-.0525.114l-.0177.036a.31.31,0,0,0,.1028.4024.2587.2587,0,0,0,.3684-.1123c.0183-.0355.0483-.0978.0861-.1833.062-.14.1239-.2963.1816-.4643a4.4849,4.4849,0,0,0,.2674-1.4405,2.868,2.868,0,0,0-.0647-.5807A5.2671,5.2671,0,0,0,20.82,9.6149c-.0849-.1957-.1757-.3812-.2666-.5511-.055-.1027-.0983-.1783-.1242-.221a.2569.2569,0,0,0-.3748-.0833A.3124.3124,0,0,0,19.9783,9.1688Z"/></clipPath><clipPath id="clip-path-8"><path class="cls-3" d="M20.89,12.8512q.0308-.0829.0605-.17a4.604,4.604,0,0,0,.2674-1.4606,2.947,2.947,0,0,0-.0647-.5888A5.3933,5.3933,0,0,0,20.82,9.6056c-.0849-.1985-.1757-.3866-.2666-.5588-.055-.1042-.0983-.1807-.1242-.2241a.2549.2549,0,0,0-.3748-.0845.32.32,0,0,0-.0763.4151l.0283.0491c.024.0424.0509.0916.08.1467.0834.1581.167.3312.2448.513a4.7761,4.7761,0,0,1,.2945.9018,2.2989,2.2989,0,0,1,.0513.4564,3.9782,3.9782,0,0,1-.2329,1.25c-.0463.1367-.0956.2646-.1451.3808Z"/></clipPath><linearGradient id="New_Gradient_Swatch_2-2" x1="23.0058" y1="20.7527" x2="27.7436" y2="26.434" xlink:href="#New_Gradient_Swatch_2"/><clipPath id="clip-path-9"><path class="cls-2" d="M22.3778,17.8417c.4713.0242.9426.0493,1.3823.0738.1535.0085.3007.0169.4409.025.3975.023.731.0437.9871.0615a32.69,32.69,0,0,1,3.5827.5166,24.1859,24.1859,0,0,1,5.4119,1.86c.1719.0762.7621.3392.7758.3453a.2849.2849,0,0,0,.382-.1846.3436.3436,0,0,0-.1648-.4278c-.0133-.0059-.604-.2691-.7764-.3456A24.6687,24.6687,0,0,0,28.874,17.87a33.1642,33.1642,0,0,0-3.6495-.5255c-.2584-.018-.5938-.0388-.9931-.0619-.1406-.0081-.2882-.0165-.442-.0251-.4406-.0245-.9126-.05-1.3845-.0739l-.4562-.0232-.1279-.0064-.0453-.0023a.3281.3281,0,0,0-.2739.4813l.0245.0545c.0206.0468.0438.1008.0688.1613.0717.1735.1435.3629.21.561a6.5368,6.5368,0,0,1,.241.9023c.0194.1059.034.2075.0438.3041a5.0376,5.0376,0,0,1-.1723,1.3752c-.0485.216-.1052.4435-.1684.6786-.0774.2879-.16.5721-.2435.84-.029.0937-.056.1785-.08.2529l-.0222.068-.0075.0227a.3423.3423,0,0,0,.1719.4243.286.286,0,0,0,.3789-.1924l.0086-.026.0234-.0717c.025-.0772.0529-.165.0829-.2616.0856-.276.1711-.5688.251-.8661.0657-.2442.1248-.4813.1756-.7078a5.515,5.515,0,0,0,.1863-1.61q-.0177-.1754-.052-.3622a7.2372,7.2372,0,0,0-.267-1.0032c-.04-.1176-.0809-.2321-.1229-.3425Z"/></clipPath><clipPath id="clip-path-11"><path class="cls-2" d="M22.3816,21.5839q.058-.2281.1068-.445a5.515,5.515,0,0,0,.1863-1.61q-.0177-.1754-.052-.3622a7.2372,7.2372,0,0,0-.267-1.0032c-.04-.1176-.0809-.2321-.1229-.3425l.145.0074c.4713.0242.9426.0493,1.3823.0738.1535.0085.3007.0169.4409.025.3975.023.731.0437.9871.0615a32.69,32.69,0,0,1,3.5827.5166,24.1859,24.1859,0,0,1,5.4119,1.86c.1719.0762.7621.3392.7758.3453a.2849.2849,0,0,0,.382-.1846.3436.3436,0,0,0-.1648-.4278c-.0133-.0059-.604-.2691-.7764-.3456a24.6687,24.6687,0,0,0-5.5252-1.8958,33.1642,33.1642,0,0,0-3.6495-.5255c-.2584-.018-.5938-.0388-.9931-.0619-.1406-.0081-.2882-.0165-.442-.0251-.4406-.0245-.9126-.05-1.3845-.0739l-.4562-.0232-.1279-.0064-.0453-.0023a.3281.3281,0,0,0-.2739.4813l.0245.0545c.0206.0468.0438.1008.0688.1613.0717.1735.1435.3629.21.561a6.5368,6.5368,0,0,1,.241.9023c.0194.1059.034.2075.0438.3041a5.0376,5.0376,0,0,1-.1723,1.3752c-.0435.1936-.0935.3965-.149.6057Z"/></clipPath><clipPath id="clip-path-13"><path class="cls-3" d="M20.89,21.5839q.0308-.0817.0605-.168a4.4849,4.4849,0,0,0,.2674-1.4405,2.8681,2.8681,0,0,0-.0647-.5807A5.2674,5.2674,0,0,0,20.82,18.383c-.0849-.1957-.1757-.3812-.2666-.5511-.055-.1027-.0983-.1783-.1242-.221a.2569.2569,0,0,0-.3748-.0833.3124.3124,0,0,0-.0763.4093l.0283.0484c.024.0418.0509.09.08.1447.0834.1559.167.3266.2448.506a4.6643,4.6643,0,0,1,.2945.8894,2.2373,2.2373,0,0,1,.0513.45,3.8754,3.8754,0,0,1-.2329,1.233c-.0463.1348-.0956.2609-.1451.3755Z"/></clipPath><clipPath id="clip-path-14"><path class="cls-2" d="M0,4.9943A4.996,4.996,0,0,1,4.9978,0H157.0022A4.996,4.996,0,0,1,162,4.9943V28.0057A4.996,4.996,0,0,1,157.0022,33H4.9978A4.996,4.996,0,0,1,0,28.0057Zm2,0V28.0057A2.996,2.996,0,0,0,4.9978,31H157.0022A2.996,2.996,0,0,0,160,28.0057V4.9943A2.996,2.996,0,0,0,157.0022,2H4.9978A2.996,2.996,0,0,0,2,4.9943Z"/></clipPath><clipPath id="clip-path-15"><path class="cls-1" d="M143.61,21V15.862a3.0136,3.0136,0,0,1,2.016-.966c.756,0,1.106.378,1.106,1.204V21h1.736V15.666a2.0015,2.0015,0,0,0-2.142-2.24,3.6852,3.6852,0,0,0-2.716,1.148V10.64h-1.736V21Zm-6.314.154a3.2682,3.2682,0,0,0,3.206-2.184l-1.428-.518a1.6443,1.6443,0,0,1-1.736,1.288c-1.134,0-1.778-.868-1.778-2.45,0-1.778.826-2.422,1.806-2.422a1.6251,1.6251,0,0,1,1.652,1.246l1.456-.518a3.0194,3.0194,0,0,0-3.08-2.17,3.4883,3.4883,0,0,0-3.57,3.864C133.824,20.006,135.574,21.154,137.296,21.154Zm-5.81-.056a8.4935,8.4935,0,0,0,1.26-.098V19.642a2.8036,2.8036,0,0,1-.742.098c-.854,0-1.092-.322-1.092-1.12V14.938h1.918V13.566h-1.918v-2.59H129.19v2.59h-1.288v1.372h1.288v4.116C129.19,20.398,129.596,21.098,131.486,21.098Zm-4.872-8.82V10.78H124.85v1.498ZM126.6,21V13.566h-1.736V21Zm-3.808,0V10.64h-1.736V21Zm-8.106.196a2.986,2.986,0,0,0,2.828-1.694h.028V21h1.442V15.876h-3.766V17.29h2.086a2.283,2.283,0,0,1-2.422,2.338c-1.47,0-2.856-.994-2.856-3.892,0-2.912,1.554-3.668,2.786-3.668s1.946.518,2.408,2.072l1.624-.434a3.8313,3.8313,0,0,0-4.018-3.262c-2.758,0-4.564,2.016-4.564,5.334C110.262,18.942,111.718,21.196,114.686,21.196ZM100.336,21V15.82a2.9527,2.9527,0,0,1,2.016-.966c.784,0,1.12.42,1.12,1.232V21h1.722V15.596a1.9647,1.9647,0,0,0-2.198-2.17,3.5088,3.5088,0,0,0-2.66,1.33v-1.19H98.614V21Zm-6.874-1.288c1.246,0,1.89-.896,1.89-2.422,0-1.386-.588-2.394-1.89-2.394-1.246,0-1.89.896-1.89,2.394C91.572,18.704,92.146,19.712,93.462,19.712Zm0,1.442a3.5212,3.5212,0,0,1-3.626-3.864,3.6333,3.6333,0,1,1,7.252,0A3.5212,3.5212,0,0,1,93.462,21.154ZM80.344,21l1.68-2.604L83.732,21h1.834L82.99,17.164l2.436-3.598H83.648l-1.498,2.38-1.554-2.38H78.762l2.408,3.598L78.58,21Zm-3.052-8.722V10.78H75.528v1.498ZM77.278,21V13.566H75.542V21Zm-13.02,0V15.862a2.9454,2.9454,0,0,1,1.904-.966c.812,0,1.05.378,1.05,1.204V21h1.722V15.862a2.9148,2.9148,0,0,1,1.904-.966c.812,0,1.05.378,1.05,1.204V21H73.61V15.666a1.9885,1.9885,0,0,0-2.17-2.24,3.5239,3.5239,0,0,0-2.604,1.218,1.86,1.86,0,0,0-2.03-1.218,3.3831,3.3831,0,0,0-2.548,1.162V13.566H62.536V21ZM55.97,16.562h3.472c-.098-1.134-.658-1.736-1.694-1.736A1.743,1.743,0,0,0,55.97,16.562Zm1.834,4.592c-1.862,0-3.584-1.134-3.584-3.864a3.5325,3.5325,0,0,1,3.542-3.864c1.666,0,3.262.994,3.262,4.018v.406H55.942a1.84,1.84,0,0,0,1.988,1.932,2.6946,2.6946,0,0,0,2.086-.868l.91.896A4.0121,4.0121,0,0,1,57.804,21.154ZM46.898,12.236v3.15h1.918c1.456,0,2.24-.364,2.24-1.596,0-1.19-.77-1.554-2.254-1.554Zm0,8.764H45.176V10.64h3.71c2.464,0,3.892.994,3.892,3.108a2.7555,2.7555,0,0,1-2.296,2.94L52.918,21H51.042l-2.324-4.088h-1.82Z"/></clipPath></defs><title>remix-button</title><g class="cls-4"><g class="cls-5"><rect class="cls-6" x="10.9579" y="5.0181" width="28.2712" height="7.9212"/><polyline class="cls-7" points="36.021 16.642 39.255 16.199 39.328 15.16 39.328 12.86 39.076 12.05 28.532 12.05 28.532 12.86 11.696 12.86 11.696 15.16 13.969 15.91 22.582 16.642 24.459 16.642"/><polygon class="cls-8" points="22.582 15.16 32.386 15.16 32.386 16.217 39.418 16.198 39.418 20.773 24.813 20.773 24.813 21.584 11.696 21.584 11.696 16.198 15.787 15.904 22.582 15.957 22.582 15.16"/><g class="cls-9"><g class="cls-10"><rect class="cls-11" x="21.0267" y="8.0608" width="14.6726" height="6.8292"/></g></g><g class="cls-12"><g class="cls-13"><rect class="cls-3" x="21.162" y="7.9886" width="14.5373" height="5.205"/></g></g><g class="cls-14"><g class="cls-10"><rect class="cls-11" x="19.6068" y="8.3989" width="1.9608" height="5.4092"/></g></g><path class="cls-3" d="M20.89,12.8512q.0308-.0829.0605-.17a4.604,4.604,0,0,0,.2674-1.4606,2.947,2.947,0,0,0-.0647-.5888A5.3933,5.3933,0,0,0,20.82,9.6056c-.0849-.1985-.1757-.3866-.2666-.5588-.055-.1042-.0983-.1807-.1242-.2241a.2549.2549,0,0,0-.3748-.0845.32.32,0,0,0-.0763.4151l.0283.0491c.024.0424.0509.0916.08.1467.0834.1581.167.3312.2448.513a4.7761,4.7761,0,0,1,.2945.9018,2.2989,2.2989,0,0,1,.0513.4564,3.9782,3.9782,0,0,1-.2329,1.25c-.0463.1367-.0956.2646-.1451.3808Z"/><g class="cls-15"><rect class="cls-3" x="11.6958" y="4.9669" width="27.5871" height="21.9391"/></g><polygon class="cls-16" points="39.263 26.655 11.676 26.655 11.676 21.584 24.793 21.584 24.792 20.759 39.263 20.759 39.263 26.655"/><g class="cls-17"><g class="cls-10"><rect class="cls-18" x="21.0267" y="16.7832" width="14.6726" height="6.8292"/></g></g><g class="cls-19"><g class="cls-10"><rect class="cls-3" x="21.162" y="16.7832" width="14.5373" height="5.1388"/></g></g><path class="cls-18" d="M19.9783,17.95l.0283.0484c.024.0418.0509.09.08.1447.0834.1559.167.3266.2448.506a4.6643,4.6643,0,0,1,.2945.8894,2.2373,2.2373,0,0,1,.0513.45,3.8754,3.8754,0,0,1-.2329,1.233c-.0517.15-.1071.29-.1623.415-.0191.0433-.0368.0815-.0525.114l-.0177.036a.31.31,0,0,0,.1028.4024.2587.2587,0,0,0,.3684-.1123c.0183-.0355.0483-.0978.0861-.1833.062-.14.1239-.2963.1816-.4644a4.4849,4.4849,0,0,0,.2674-1.4405,2.8681,2.8681,0,0,0-.0647-.5807,5.2674,5.2674,0,0,0-.3332-1.0117c-.0849-.1957-.1757-.3812-.2666-.5511-.055-.1027-.0983-.1783-.1242-.221a.2569.2569,0,0,0-.3748-.0833A.3124.3124,0,0,0,19.9783,17.95Z"/><path class="cls-3" d="M20.89,21.5839q.0308-.0817.0605-.168a4.4849,4.4849,0,0,0,.2674-1.4405,2.8681,2.8681,0,0,0-.0647-.5807A5.2674,5.2674,0,0,0,20.82,18.383c-.0849-.1957-.1757-.3812-.2666-.5511-.055-.1027-.0983-.1783-.1242-.221a.2569.2569,0,0,0-.3748-.0833.3124.3124,0,0,0-.0763.4093l.0283.0484c.024.0418.0509.09.08.1447.0834.1559.167.3266.2448.506a4.6643,4.6643,0,0,1,.2945.8894,2.2373,2.2373,0,0,1,.0513.45,3.8754,3.8754,0,0,1-.2329,1.233c-.0463.1348-.0956.2609-.1451.3755Z"/><g class="cls-20"><rect class="cls-3" x="11.6958" y="5.0181" width="27.5871" height="21.637"/></g></g></g><circle cx="16.3906" cy="10.6599" r="1.1959"/><path class="cls-21" d="M15.1947,10.5646V10.55a1.2891,1.2891,0,1,1,1.2886,1.3269,1.19,1.19,0,0,1-1.27-1.103.94.94,0,0,0,.975.8265,1.0233,1.0233,0,1,0-.9932-1.0358Z"/><circle class="cls-22" cx="15.7101" cy="10.9339" r="0.3286"/><circle cx="16.3906" cy="19.4027" r="1.1959"/><path class="cls-21" d="M15.1947,19.3074v-.0147A1.2891,1.2891,0,1,1,16.4831,20.62a1.19,1.19,0,0,1-1.27-1.103.94.94,0,0,0,.975.8265,1.0233,1.0233,0,1,0-.9932-1.0358Z"/><circle class="cls-22" cx="15.7101" cy="19.6767" r="0.3286"/><g class="cls-23"><rect class="cls-24" x="-5" y="-5" width="172" height="43"/></g><g class="cls-25"><rect class="cls-24" x="40.176" y="5.444" width="113.292" height="20.752"/></g></svg>